<?xml version="1.0" encoding="utf-8" standalone="no"?>
<!DOCTYPE svg PUBLIC "-//W3C//DTD SVG 1.1//EN"
"http://www.w3.org/Graphics/SVG/1.1/DTD/svg11.dtd">
<svg xmlns:xlink="http://www.w3.org/1999/xlink" width="604.8pt" height="172.8pt" viewBox="0 0 604.8 172.8" xmlns="http://www.w3.org/2000/svg" version="1.1">
<defs>
<style type="text/css">*{stroke-linejoin: round; stroke-linecap: butt}</style>
</defs>
<g id="figure_1">
<g id="patch_1">
<path d="M 0 172.8 
L 604.8 172.8 
L 604.8 0 
L 0 0 
z
" style="fill: #ffffff"/>
</g>
<g id="axes_1">
<g id="patch_2">
<path d="M 69.6 90.8 
C 72.1 90.8 74.4 89.7 76.2 87.7 
C 77.9 85.7 78.9 82.9 78.9 80.1 
C 78.9 77.3 77.9 74.5 76.2 72.5 
C 74.4 70.5 72.1 69.4 69.6 69.4 
C 67.2 69.4 64.8 70.5 63.1 72.5 
C 61.3 74.5 60.4 77.3 60.4 80.1 
C 60.4 82.9 61.3 85.7 63.1 87.7 
C 64.8 89.7 67.2 90.8 69.6 90.8 
L 69.6 90.8 
z
" clip-path="url(#pa10da27d9a)" style="fill: none; stroke: #000000; stroke-width: 1.5; stroke-linejoin: miter"/>
</g>
<g id="patch_3">
<path d="M 83.2 90.8 
C 85.7 90.8 88 89.7 89.8 87.7 
C 91.5 85.7 92.5 82.9 92.5 80.1 
C 92.5 77.3 91.5 74.5 89.8 72.5 
C 88 70.5 85.7 69.4 83.2 69.4 
C 80.8 69.4 78.4 70.5 76.7 72.5 
C 74.9 74.5 74 77.3 74 80.1 
C 74 82.9 74.9 85.7 76.7 87.7 
C 78.4 89.7 80.8 90.8 83.2 90.8 
L 83.2 90.8 
z
" clip-path="url(#pa10da27d9a)" style="fill: none; stroke: #000000; stroke-width: 1.5; stroke-linejoin: miter"/>
</g>
<g id="patch_4">
<path d="M 123 85.8 
L 132.8 85.8 
L 132.8 74.4 
L 123 74.4 
z
" clip-path="url(#pa10da27d9a)" style="fill: #777777; stroke: #777777; stroke-linejoin: miter"/>
</g>
<g id="patch_5">
<path d="M 146.4 85.8 
L 156.2 85.8 
L 156.2 74.4 
L 146.4 74.4 
z
" clip-path="url(#pa10da27d9a)" style="fill: #1f3864; stroke: #1f3864; stroke-linejoin: miter"/>
</g>
<g id="patch_6">
<path d="M 287.9 85.8 
L 297.7 85.8 
L 297.7 74.4 
L 287.9 74.4 
z
" clip-path="url(#pa10da27d9a)" style="fill: #2e7d6b; stroke: #2e7d6b; stroke-linejoin: miter"/>
</g>
<g id="patch_7">
<path d="M 413.1 85.8 
L 422.9 85.8 
L 422.9 74.4 
L 413.1 74.4 
z
" clip-path="url(#pa10da27d9a)" style="fill: #c9971c; stroke: #c9971c; stroke-linejoin: miter"/>
</g>
<g id="line2d_1">
<path d="M 34.2 64.3 
L 34.2 80.1 
" clip-path="url(#pa10da27d9a)" style="fill: none; stroke: #000000; stroke-width: 1.5; stroke-linecap: square"/>
</g>
<g id="line2d_2">
<path d="M 34.2 80.1 
L 60.4 80.1 
" clip-path="url(#pa10da27d9a)" style="fill: none; stroke: #000000; stroke-width: 1.5; stroke-linecap: square"/>
</g>
<g id="line2d_3">
<path d="M 92.5 80.1 
L 126.8 80.1 
" clip-path="url(#pa10da27d9a)" style="fill: none; stroke: #000000; stroke-width: 1.5; stroke-linecap: square"/>
</g>
<g id="line2d_4">
<path d="M 137.7 108.5 
L 137.7 51.8 
" clip-path="url(#pa10da27d9a)" style="fill: none; stroke: #1f3864; stroke-width: 4; stroke-linecap: square"/>
</g>
<g id="line2d_5">
<path d="M 279.2 108.5 
L 279.2 51.8 
" clip-path="url(#pa10da27d9a)" style="fill: none; stroke: #1f3864; stroke-width: 4; stroke-linecap: square"/>
</g>
<g id="line2d_6">
<path d="M 404.4 108.5 
L 404.4 51.8 
" clip-path="url(#pa10da27d9a)" style="fill: none; stroke: #1f3864; stroke-width: 4; stroke-linecap: square"/>
</g>
<g id="line2d_7">
<path d="M 540.5 108.5 
L 540.5 51.8 
" clip-path="url(#pa10da27d9a)" style="fill: none; stroke: #1f3864; stroke-width: 4; stroke-linecap: square"/>
</g>
<g id="line2d_8">
<path d="M 126.8 80.1 
L 137.7 80.1 
" clip-path="url(#pa10da27d9a)" style="fill: none; stroke: #000000; stroke-width: 1.5; stroke-linecap: square"/>
</g>
<g id="line2d_9">
<path d="M 137.7 80.1 
L 279.2 80.1 
" clip-path="url(#pa10da27d9a)" style="fill: none; stroke: #000000; stroke-width: 1.5; stroke-linecap: square"/>
</g>
<g id="line2d_10">
<path d="M 279.2 80.1 
L 404.4 80.1 
" clip-path="url(#pa10da27d9a)" style="fill: none; stroke: #000000; stroke-width: 1.5; stroke-linecap: square"/>
</g>
<g id="line2d_11">
<path d="M 404.4 80.1 
L 540.5 80.1 
" clip-path="url(#pa10da27d9a)" style="fill: none; stroke: #000000; stroke-width: 1.5; stroke-linecap: square"/>
</g>
<g id="text_1">
<text style="font-size: 8px; font-family: 'DejaVu Sans'" transform="translate(13.7 35.8)">33 kV grid</text>
<text style="font-size: 8px; font-family: 'DejaVu Sans'" transform="translate(16.7 45.5)">500 MVA</text>
</g>
<g id="text_2">
<text style="font-size: 7.5px; font-family: 'DejaVu Sans'" transform="translate(62.1 96.7)">20 MVA</text>
<text style="font-size: 7.5px; font-family: 'DejaVu Sans'" transform="translate(59.4 105.7)">33/11 kV</text>
<text style="font-size: 7.5px; font-family: 'DejaVu Sans'" transform="translate(67.8 114.8)">10%</text>
</g>
<g id="text_3">
<text style="font-weight: 700; font-size: 8px; font-family: 'DejaVu Sans'; text-anchor: middle; fill: #1f3864" x="137.7" y="42.3" transform="rotate(-0 137.7 42.3)">SS 11 kV bus</text>
</g>
<g id="text_4">
<text style="font-size: 7px; font-family: 'DejaVu Sans'; fill: #777777" transform="translate(115.6 118.9)">8.2 kA max</text>
<text style="font-size: 7px; font-family: 'DejaVu Sans'; fill: #777777" transform="translate(116.6 127.3)">5 kA min</text>
</g>
<g id="text_5">
<text style="font-weight: 700; font-size: 8px; font-family: 'DejaVu Sans'; text-anchor: middle; fill: #1f3864" x="279.2" y="42.3" transform="rotate(-0 279.2 42.3)">Section A</text>
</g>
<g id="text_6">
<text style="font-size: 7px; font-family: 'DejaVu Sans'; fill: #777777" transform="translate(257.2 118.9)">2.7 kA max</text>
<text style="font-size: 7px; font-family: 'DejaVu Sans'; fill: #777777" transform="translate(258.2 127.3)">2 kA min</text>
</g>
<g id="patch_8">
<path d="M 281 93.6 
Q 288.7 97.4 295.5 100.8 
" style="fill: none; stroke: #000000; stroke-linecap: round"/>
<path d="M 292.8 97.2 
L 295.5 100.8 
L 291 100.8 
" style="fill: none; stroke: #000000; stroke-linecap: round"/>
</g>
<g id="text_7">
<text style="font-size: 7px; font-family: 'DejaVu Sans'; text-anchor: start" x="302.1" y="104" transform="rotate(-0 302.1 104)">3.0 MVA</text>
</g>
<g id="text_8">
<text style="font-weight: 700; font-size: 8px; font-family: 'DejaVu Sans'; text-anchor: middle; fill: #1f3864" x="404.4" y="42.3" transform="rotate(-0 404.4 42.3)">Section B</text>
</g>
<g id="text_9">
<text style="font-size: 7px; font-family: 'DejaVu Sans'; fill: #777777" transform="translate(382.4 118.9)">1.4 kA max</text>
<text style="font-size: 7px; font-family: 'DejaVu Sans'; fill: #777777" transform="translate(383.4 127.3)">1.1 kA min</text>
</g>
<g id="patch_9">
<path d="M 406.2 93.6 
Q 414 97.4 420.7 100.8 
" style="fill: none; stroke: #000000; stroke-linecap: round"/>
<path d="M 418 97.2 
L 420.7 100.8 
L 416.2 100.8 
" style="fill: none; stroke: #000000; stroke-linecap: round"/>
</g>
<g id="text_10">
<text style="font-size: 7px; font-family: 'DejaVu Sans'; text-anchor: start" x="427.3" y="104" transform="rotate(-0 427.3 104)">2.5 MVA</text>
</g>
<g id="text_11">
<text style="font-weight: 700; font-size: 8px; font-family: 'DejaVu Sans'; text-anchor: middle; fill: #1f3864" x="540.5" y="42.3" transform="rotate(-0 540.5 42.3)">Section C</text>
</g>
<g id="text_12">
<text style="font-size: 7px; font-family: 'DejaVu Sans'; fill: #777777" transform="translate(518.5 118.9)">0.9 kA max</text>
<text style="font-size: 7px; font-family: 'DejaVu Sans'; fill: #777777" transform="translate(519.5 127.3)">0.7 kA min</text>
</g>
<g id="patch_10">
<path d="M 542.3 93.6 
Q 550.1 97.4 556.8 100.8 
" style="fill: none; stroke: #000000; stroke-linecap: round"/>
<path d="M 554.1 97.2 
L 556.8 100.8 
L 552.3 100.8 
" style="fill: none; stroke: #000000; stroke-linecap: round"/>
</g>
<g id="text_13">
<text style="font-size: 7px; font-family: 'DejaVu Sans'; text-anchor: start" x="563.4" y="104" transform="rotate(-0 563.4 104)">2.0 MVA</text>
</g>
<g id="text_14">
<text style="font-weight: 700; font-size: 7.5px; font-family: 'DejaVu Sans'; text-anchor: middle; fill: #777777" x="127.9" y="99" transform="rotate(-0 127.9 99)">R1</text>
</g>
<g id="text_15">
<text style="font-weight: 700; font-size: 7.5px; font-family: 'DejaVu Sans'; text-anchor: middle; fill: #1f3864" x="151.3" y="68.8" transform="rotate(-0 151.3 68.8)">R2</text>
</g>
<g id="text_16">
<text style="font-weight: 700; font-size: 7.5px; font-family: 'DejaVu Sans'; text-anchor: middle; fill: #2e7d6b" x="292.8" y="68.8" transform="rotate(-0 292.8 68.8)">R3</text>
</g>
<g id="text_17">
<text style="font-weight: 700; font-size: 7.5px; font-family: 'DejaVu Sans'; text-anchor: middle; fill: #c9971c" x="418" y="68.8" transform="rotate(-0 418 68.8)">R4</text>
</g>
<g id="text_18">
<text style="font-size: 7.5px; font-family: 'DejaVu Sans'; text-anchor: middle" x="216.6" y="72.5" transform="rotate(-0 216.6 72.5)">4 km</text>
</g>
<g id="text_19">
<text style="font-size: 7.5px; font-family: 'DejaVu Sans'; text-anchor: middle" x="350" y="72.5" transform="rotate(-0 350 72.5)">5 km</text>
</g>
<g id="text_20">
<text style="font-size: 7.5px; font-family: 'DejaVu Sans'; text-anchor: middle" x="480.7" y="72.5" transform="rotate(-0 480.7 72.5)">6 km</text>
</g>
</g>
</g>
<defs>
<clipPath id="pa10da27d9a">
<rect x="17.9" y="10.8" width="555.3" height="151.2"/>
</clipPath>
</defs>
</svg>
